<mxfile host="app.diagrams.net" modified="2020-12-09T12:47:35.673Z" agent="5.0 (Macintosh; Intel Mac OS X 10_15_7) AppleWebKit/537.36 (KHTML, like Gecko) Chrome/86.0.4240.198 Safari/537.36" etag="9EYYPu1R1aevyGuQ4lpI" version="13.11.0" type="github">
  <diagram id="C5RBs43oDa-KdzZeNtuy" name="Page-1">
    <mxGraphModel dx="1113" dy="566" grid="1" gridSize="10" guides="1" tooltips="1" connect="1" arrows="1" fold="1" page="1" pageScale="1" pageWidth="827" pageHeight="1169" math="0" shadow="0">
      <root>
        <mxCell id="WIyWlLk6GJQsqaUBKTNV-0" />
        <mxCell id="WIyWlLk6GJQsqaUBKTNV-1" parent="WIyWlLk6GJQsqaUBKTNV-0" />
        <mxCell id="crItWiVOyozhZd9ilFBH-0" value="" style="rounded=1;whiteSpace=wrap;html=1;align=left;" vertex="1" parent="WIyWlLk6GJQsqaUBKTNV-1">
          <mxGeometry x="240" y="240" width="150" height="220" as="geometry" />
        </mxCell>
        <mxCell id="crItWiVOyozhZd9ilFBH-1" value="App(Fat SDK)" style="rounded=1;whiteSpace=wrap;html=1;" vertex="1" parent="WIyWlLk6GJQsqaUBKTNV-1">
          <mxGeometry x="255" y="270" width="120" height="60" as="geometry" />
        </mxCell>
        <mxCell id="crItWiVOyozhZd9ilFBH-2" value="Sidecar" style="rounded=1;whiteSpace=wrap;html=1;" vertex="1" parent="WIyWlLk6GJQsqaUBKTNV-1">
          <mxGeometry x="255" y="380" width="120" height="60" as="geometry" />
        </mxCell>
        <mxCell id="crItWiVOyozhZd9ilFBH-3" value="" style="rounded=1;whiteSpace=wrap;html=1;align=left;" vertex="1" parent="WIyWlLk6GJQsqaUBKTNV-1">
          <mxGeometry x="480" y="240" width="130" height="220" as="geometry" />
        </mxCell>
        <mxCell id="crItWiVOyozhZd9ilFBH-4" value="App(Thin SDK)" style="rounded=1;whiteSpace=wrap;html=1;" vertex="1" parent="WIyWlLk6GJQsqaUBKTNV-1">
          <mxGeometry x="505" y="270" width="95" height="60" as="geometry" />
        </mxCell>
        <mxCell id="crItWiVOyozhZd9ilFBH-5" value="Sidecar" style="rounded=1;whiteSpace=wrap;html=1;" vertex="1" parent="WIyWlLk6GJQsqaUBKTNV-1">
          <mxGeometry x="505" y="380" width="85" height="60" as="geometry" />
        </mxCell>
        <mxCell id="crItWiVOyozhZd9ilFBH-6" value="controller" style="rounded=1;whiteSpace=wrap;html=1;" vertex="1" parent="WIyWlLk6GJQsqaUBKTNV-1">
          <mxGeometry x="375" y="110" width="180" height="80" as="geometry" />
        </mxCell>
        <mxCell id="crItWiVOyozhZd9ilFBH-7" value="Service CRDS" style="rounded=1;whiteSpace=wrap;html=1;" vertex="1" parent="WIyWlLk6GJQsqaUBKTNV-1">
          <mxGeometry x="620" y="110" width="180" height="80" as="geometry" />
        </mxCell>
        <mxCell id="crItWiVOyozhZd9ilFBH-8" value="" style="endArrow=classic;html=1;exitX=1;exitY=0.5;exitDx=0;exitDy=0;entryX=0;entryY=0.5;entryDx=0;entryDy=0;" edge="1" parent="WIyWlLk6GJQsqaUBKTNV-1" source="crItWiVOyozhZd9ilFBH-6" target="crItWiVOyozhZd9ilFBH-7">
          <mxGeometry width="50" height="50" relative="1" as="geometry">
            <mxPoint x="490" y="320" as="sourcePoint" />
            <mxPoint x="540" y="270" as="targetPoint" />
          </mxGeometry>
        </mxCell>
        <mxCell id="crItWiVOyozhZd9ilFBH-10" value="Watch" style="edgeLabel;html=1;align=center;verticalAlign=middle;resizable=0;points=[];horizontal=1;fontSize=12;" vertex="1" connectable="0" parent="crItWiVOyozhZd9ilFBH-8">
          <mxGeometry x="-0.0769" y="4" relative="1" as="geometry">
            <mxPoint y="-16" as="offset" />
          </mxGeometry>
        </mxCell>
        <mxCell id="crItWiVOyozhZd9ilFBH-11" value="" style="endArrow=classic;html=1;fontSize=12;exitX=0.5;exitY=1;exitDx=0;exitDy=0;entryX=0.5;entryY=0;entryDx=0;entryDy=0;fillColor=#d5e8d4;strokeColor=#82b366;" edge="1" parent="WIyWlLk6GJQsqaUBKTNV-1" source="crItWiVOyozhZd9ilFBH-4" target="crItWiVOyozhZd9ilFBH-5">
          <mxGeometry width="50" height="50" relative="1" as="geometry">
            <mxPoint x="490" y="320" as="sourcePoint" />
            <mxPoint x="540" y="270" as="targetPoint" />
          </mxGeometry>
        </mxCell>
        <mxCell id="crItWiVOyozhZd9ilFBH-12" value="上报服务注册/订阅信息&lt;br&gt;到本机固定端口" style="edgeLabel;html=1;align=center;verticalAlign=middle;resizable=0;points=[];fontSize=12;" vertex="1" connectable="0" parent="crItWiVOyozhZd9ilFBH-11">
          <mxGeometry x="-0.2" relative="1" as="geometry">
            <mxPoint x="-7" y="3" as="offset" />
          </mxGeometry>
        </mxCell>
        <mxCell id="crItWiVOyozhZd9ilFBH-13" value="" style="endArrow=classic;html=1;fontSize=12;exitX=1;exitY=0.5;exitDx=0;exitDy=0;entryX=0.5;entryY=1;entryDx=0;entryDy=0;fillColor=#d5e8d4;strokeColor=#82b366;" edge="1" parent="WIyWlLk6GJQsqaUBKTNV-1" source="crItWiVOyozhZd9ilFBH-5" target="crItWiVOyozhZd9ilFBH-7">
          <mxGeometry width="50" height="50" relative="1" as="geometry">
            <mxPoint x="490" y="320" as="sourcePoint" />
            <mxPoint x="540" y="270" as="targetPoint" />
            <Array as="points">
              <mxPoint x="710" y="410" />
            </Array>
          </mxGeometry>
        </mxCell>
        <mxCell id="crItWiVOyozhZd9ilFBH-16" value="" style="endArrow=classic;html=1;fontSize=12;exitX=0.5;exitY=1;exitDx=0;exitDy=0;entryX=0.5;entryY=0;entryDx=0;entryDy=0;fillColor=#d5e8d4;strokeColor=#82b366;" edge="1" parent="WIyWlLk6GJQsqaUBKTNV-1" source="crItWiVOyozhZd9ilFBH-6" target="crItWiVOyozhZd9ilFBH-3">
          <mxGeometry width="50" height="50" relative="1" as="geometry">
            <mxPoint x="490" y="320" as="sourcePoint" />
            <mxPoint x="540" y="270" as="targetPoint" />
            <Array as="points">
              <mxPoint x="465" y="220" />
              <mxPoint x="545" y="220" />
            </Array>
          </mxGeometry>
        </mxCell>
        <mxCell id="crItWiVOyozhZd9ilFBH-17" value="Watch lifecycle" style="edgeLabel;html=1;align=center;verticalAlign=middle;resizable=0;points=[];fontSize=12;" vertex="1" connectable="0" parent="crItWiVOyozhZd9ilFBH-16">
          <mxGeometry x="-0.04" y="2" relative="1" as="geometry">
            <mxPoint x="13" y="-8" as="offset" />
          </mxGeometry>
        </mxCell>
        <mxCell id="crItWiVOyozhZd9ilFBH-18" value="ConfigServer" style="rounded=1;whiteSpace=wrap;html=1;" vertex="1" parent="WIyWlLk6GJQsqaUBKTNV-1">
          <mxGeometry x="130" y="110" width="180" height="80" as="geometry" />
        </mxCell>
        <mxCell id="crItWiVOyozhZd9ilFBH-30" style="edgeStyle=orthogonalEdgeStyle;rounded=0;orthogonalLoop=1;jettySize=auto;html=1;exitX=0;exitY=0.5;exitDx=0;exitDy=0;fontSize=12;" edge="1" parent="WIyWlLk6GJQsqaUBKTNV-1" source="crItWiVOyozhZd9ilFBH-19">
          <mxGeometry relative="1" as="geometry">
            <mxPoint x="150" y="192" as="targetPoint" />
            <Array as="points">
              <mxPoint x="150" y="565" />
              <mxPoint x="150" y="192" />
            </Array>
          </mxGeometry>
        </mxCell>
        <mxCell id="crItWiVOyozhZd9ilFBH-19" value="Pilot" style="rounded=1;whiteSpace=wrap;html=1;fontSize=12;align=center;" vertex="1" parent="WIyWlLk6GJQsqaUBKTNV-1">
          <mxGeometry x="350" y="530" width="190" height="70" as="geometry" />
        </mxCell>
        <mxCell id="crItWiVOyozhZd9ilFBH-21" value="" style="endArrow=classic;html=1;fontSize=12;exitX=0.5;exitY=1;exitDx=0;exitDy=0;entryX=0.5;entryY=0;entryDx=0;entryDy=0;fillColor=#f8cecc;strokeColor=#b85450;" edge="1" parent="WIyWlLk6GJQsqaUBKTNV-1" source="crItWiVOyozhZd9ilFBH-6" target="crItWiVOyozhZd9ilFBH-0">
          <mxGeometry width="50" height="50" relative="1" as="geometry">
            <mxPoint x="475" y="200" as="sourcePoint" />
            <mxPoint x="575" y="250" as="targetPoint" />
            <Array as="points">
              <mxPoint x="465" y="220" />
              <mxPoint x="315" y="220" />
            </Array>
          </mxGeometry>
        </mxCell>
        <mxCell id="crItWiVOyozhZd9ilFBH-22" value="Watch lifecycle" style="edgeLabel;html=1;align=center;verticalAlign=middle;resizable=0;points=[];fontSize=12;" vertex="1" connectable="0" parent="crItWiVOyozhZd9ilFBH-21">
          <mxGeometry x="-0.04" y="2" relative="1" as="geometry">
            <mxPoint x="-5" y="-14" as="offset" />
          </mxGeometry>
        </mxCell>
        <mxCell id="crItWiVOyozhZd9ilFBH-23" value="" style="endArrow=classic;html=1;fontSize=12;entryX=1;entryY=0.638;entryDx=0;entryDy=0;entryPerimeter=0;fillColor=#f8cecc;strokeColor=#b85450;" edge="1" parent="WIyWlLk6GJQsqaUBKTNV-1" target="crItWiVOyozhZd9ilFBH-18">
          <mxGeometry width="50" height="50" relative="1" as="geometry">
            <mxPoint x="373" y="161" as="sourcePoint" />
            <mxPoint x="540" y="290" as="targetPoint" />
          </mxGeometry>
        </mxCell>
        <mxCell id="crItWiVOyozhZd9ilFBH-24" value="SyncLabel&lt;br&gt;(FatSDK)" style="edgeLabel;html=1;align=center;verticalAlign=middle;resizable=0;points=[];fontSize=12;" vertex="1" connectable="0" parent="crItWiVOyozhZd9ilFBH-23">
          <mxGeometry x="-0.4286" relative="1" as="geometry">
            <mxPoint x="-15" y="18.99" as="offset" />
          </mxGeometry>
        </mxCell>
        <mxCell id="crItWiVOyozhZd9ilFBH-25" value="" style="endArrow=classic;html=1;fontSize=12;entryX=1;entryY=0.638;entryDx=0;entryDy=0;entryPerimeter=0;fillColor=#d5e8d4;strokeColor=#82b366;" edge="1" parent="WIyWlLk6GJQsqaUBKTNV-1">
          <mxGeometry width="50" height="50" relative="1" as="geometry">
            <mxPoint x="373" y="130" as="sourcePoint" />
            <mxPoint x="310" y="130.03999999999996" as="targetPoint" />
          </mxGeometry>
        </mxCell>
        <mxCell id="crItWiVOyozhZd9ilFBH-26" value="Register/&lt;br&gt;Unregister&lt;br&gt;(ThinSDK)" style="edgeLabel;html=1;align=center;verticalAlign=middle;resizable=0;points=[];fontSize=12;" vertex="1" connectable="0" parent="crItWiVOyozhZd9ilFBH-25">
          <mxGeometry x="-0.4286" relative="1" as="geometry">
            <mxPoint x="-12" y="-28.01" as="offset" />
          </mxGeometry>
        </mxCell>
        <mxCell id="crItWiVOyozhZd9ilFBH-27" value="" style="endArrow=classic;html=1;fontSize=12;exitX=1;exitY=0.5;exitDx=0;exitDy=0;entryX=0.75;entryY=1;entryDx=0;entryDy=0;" edge="1" parent="WIyWlLk6GJQsqaUBKTNV-1" source="crItWiVOyozhZd9ilFBH-19" target="crItWiVOyozhZd9ilFBH-7">
          <mxGeometry width="50" height="50" relative="1" as="geometry">
            <mxPoint x="490" y="390" as="sourcePoint" />
            <mxPoint x="540" y="340" as="targetPoint" />
            <Array as="points">
              <mxPoint x="755" y="565" />
            </Array>
          </mxGeometry>
        </mxCell>
        <mxCell id="crItWiVOyozhZd9ilFBH-28" value="Watch" style="edgeLabel;html=1;align=center;verticalAlign=middle;resizable=0;points=[];fontSize=12;" vertex="1" connectable="0" parent="crItWiVOyozhZd9ilFBH-27">
          <mxGeometry x="-0.7661" relative="1" as="geometry">
            <mxPoint x="41" y="15" as="offset" />
          </mxGeometry>
        </mxCell>
        <mxCell id="crItWiVOyozhZd9ilFBH-29" value="" style="endArrow=classic;html=1;fontSize=12;entryX=0.5;entryY=1;entryDx=0;entryDy=0;exitX=0.5;exitY=0;exitDx=0;exitDy=0;" edge="1" parent="WIyWlLk6GJQsqaUBKTNV-1" source="crItWiVOyozhZd9ilFBH-19" target="crItWiVOyozhZd9ilFBH-5">
          <mxGeometry width="50" height="50" relative="1" as="geometry">
            <mxPoint x="440" y="490" as="sourcePoint" />
            <mxPoint x="540" y="380" as="targetPoint" />
            <Array as="points">
              <mxPoint x="445" y="500" />
              <mxPoint x="548" y="500" />
            </Array>
          </mxGeometry>
        </mxCell>
        <mxCell id="crItWiVOyozhZd9ilFBH-31" value="Watch" style="edgeLabel;html=1;align=center;verticalAlign=middle;resizable=0;points=[];fontSize=12;" vertex="1" connectable="0" parent="WIyWlLk6GJQsqaUBKTNV-1">
          <mxGeometry x="670" y="590" as="geometry">
            <mxPoint x="-418" y="-12" as="offset" />
          </mxGeometry>
        </mxCell>
        <mxCell id="crItWiVOyozhZd9ilFBH-32" value="" style="endArrow=classic;html=1;fontSize=12;exitX=0.5;exitY=0;exitDx=0;exitDy=0;entryX=0.5;entryY=1;entryDx=0;entryDy=0;" edge="1" parent="WIyWlLk6GJQsqaUBKTNV-1" source="crItWiVOyozhZd9ilFBH-19" target="crItWiVOyozhZd9ilFBH-2">
          <mxGeometry width="50" height="50" relative="1" as="geometry">
            <mxPoint x="490" y="420" as="sourcePoint" />
            <mxPoint x="540" y="370" as="targetPoint" />
            <Array as="points">
              <mxPoint x="445" y="500" />
              <mxPoint x="315" y="500" />
            </Array>
          </mxGeometry>
        </mxCell>
        <mxCell id="crItWiVOyozhZd9ilFBH-33" value="Push XDS" style="text;html=1;align=center;verticalAlign=middle;resizable=0;points=[];autosize=1;fontSize=12;" vertex="1" parent="WIyWlLk6GJQsqaUBKTNV-1">
          <mxGeometry x="344" y="480" width="70" height="20" as="geometry" />
        </mxCell>
        <mxCell id="crItWiVOyozhZd9ilFBH-34" value="Push XDS" style="text;html=1;align=center;verticalAlign=middle;resizable=0;points=[];autosize=1;fontSize=12;" vertex="1" parent="WIyWlLk6GJQsqaUBKTNV-1">
          <mxGeometry x="470" y="480" width="70" height="20" as="geometry" />
        </mxCell>
        <mxCell id="crItWiVOyozhZd9ilFBH-35" value="" style="endArrow=classic;html=1;fontSize=12;entryX=0.317;entryY=1;entryDx=0;entryDy=0;exitX=0;exitY=0.5;exitDx=0;exitDy=0;entryPerimeter=0;fillColor=#f8cecc;strokeColor=#b85450;" edge="1" parent="WIyWlLk6GJQsqaUBKTNV-1" source="crItWiVOyozhZd9ilFBH-1" target="crItWiVOyozhZd9ilFBH-18">
          <mxGeometry width="50" height="50" relative="1" as="geometry">
            <mxPoint x="383" y="140" as="sourcePoint" />
            <mxPoint x="320" y="140.03999999999996" as="targetPoint" />
            <Array as="points">
              <mxPoint x="187" y="300" />
            </Array>
          </mxGeometry>
        </mxCell>
        <mxCell id="crItWiVOyozhZd9ilFBH-36" value="Register/&lt;br&gt;Unregister&lt;br&gt;(FatSDK)" style="edgeLabel;html=1;align=center;verticalAlign=middle;resizable=0;points=[];fontSize=12;" vertex="1" connectable="0" parent="crItWiVOyozhZd9ilFBH-35">
          <mxGeometry x="-0.4286" relative="1" as="geometry">
            <mxPoint x="5.59" y="29.999999999999993" as="offset" />
          </mxGeometry>
        </mxCell>
        <mxCell id="crItWiVOyozhZd9ilFBH-44" value="" style="endArrow=classic;html=1;fontSize=12;strokeWidth=2;" edge="1" parent="WIyWlLk6GJQsqaUBKTNV-1">
          <mxGeometry width="50" height="50" relative="1" as="geometry">
            <mxPoint x="160" y="642" as="sourcePoint" />
            <mxPoint x="240" y="642" as="targetPoint" />
          </mxGeometry>
        </mxCell>
        <mxCell id="crItWiVOyozhZd9ilFBH-45" value="通用逻辑&lt;br&gt;" style="edgeLabel;html=1;align=center;verticalAlign=middle;resizable=0;points=[];fontSize=12;" vertex="1" connectable="0" parent="crItWiVOyozhZd9ilFBH-44">
          <mxGeometry x="0.025" y="1" relative="1" as="geometry">
            <mxPoint x="-2" y="-11" as="offset" />
          </mxGeometry>
        </mxCell>
        <mxCell id="crItWiVOyozhZd9ilFBH-46" value="" style="endArrow=classic;html=1;fontSize=12;fillColor=#d5e8d4;strokeColor=#82b366;strokeWidth=2;" edge="1" parent="WIyWlLk6GJQsqaUBKTNV-1">
          <mxGeometry width="50" height="50" relative="1" as="geometry">
            <mxPoint x="160" y="685" as="sourcePoint" />
            <mxPoint x="240" y="685" as="targetPoint" />
          </mxGeometry>
        </mxCell>
        <mxCell id="crItWiVOyozhZd9ilFBH-47" value="ThinSDK逻辑" style="edgeLabel;html=1;align=center;verticalAlign=middle;resizable=0;points=[];fontSize=12;" vertex="1" connectable="0" parent="crItWiVOyozhZd9ilFBH-46">
          <mxGeometry x="0.025" y="1" relative="1" as="geometry">
            <mxPoint x="-3" y="-14" as="offset" />
          </mxGeometry>
        </mxCell>
        <mxCell id="crItWiVOyozhZd9ilFBH-48" value="" style="endArrow=classic;html=1;fontSize=12;fillColor=#f8cecc;strokeColor=#b85450;strokeWidth=2;" edge="1" parent="WIyWlLk6GJQsqaUBKTNV-1">
          <mxGeometry width="50" height="50" relative="1" as="geometry">
            <mxPoint x="160" y="723" as="sourcePoint" />
            <mxPoint x="240" y="723" as="targetPoint" />
          </mxGeometry>
        </mxCell>
        <mxCell id="crItWiVOyozhZd9ilFBH-49" value="FatSDK逻辑" style="edgeLabel;html=1;align=center;verticalAlign=middle;resizable=0;points=[];fontSize=12;" vertex="1" connectable="0" parent="crItWiVOyozhZd9ilFBH-48">
          <mxGeometry x="0.025" y="1" relative="1" as="geometry">
            <mxPoint x="-3" y="-14" as="offset" />
          </mxGeometry>
        </mxCell>
        <mxCell id="crItWiVOyozhZd9ilFBH-50" value="Service Registry&lt;br&gt;HTTP Service" style="rounded=1;whiteSpace=wrap;html=1;" vertex="1" parent="WIyWlLk6GJQsqaUBKTNV-1">
          <mxGeometry x="655.5" y="271" width="95" height="60" as="geometry" />
        </mxCell>
        <mxCell id="crItWiVOyozhZd9ilFBH-51" value="不解析，&lt;br&gt;只代理请求" style="edgeLabel;html=1;align=center;verticalAlign=middle;resizable=0;points=[];fontSize=12;" vertex="1" connectable="0" parent="WIyWlLk6GJQsqaUBKTNV-1">
          <mxGeometry x="635" y="435" as="geometry">
            <mxPoint x="18" y="-5" as="offset" />
          </mxGeometry>
        </mxCell>
        <mxCell id="crItWiVOyozhZd9ilFBH-54" value="" style="endArrow=classic;html=1;strokeWidth=2;fontSize=12;entryX=0;entryY=0.5;entryDx=0;entryDy=0;exitX=1;exitY=0.5;exitDx=0;exitDy=0;fillColor=#d5e8d4;strokeColor=#82b366;" edge="1" parent="WIyWlLk6GJQsqaUBKTNV-1" source="crItWiVOyozhZd9ilFBH-4" target="crItWiVOyozhZd9ilFBH-50">
          <mxGeometry width="50" height="50" relative="1" as="geometry">
            <mxPoint x="540" y="340" as="sourcePoint" />
            <mxPoint x="590" y="290" as="targetPoint" />
          </mxGeometry>
        </mxCell>
        <mxCell id="crItWiVOyozhZd9ilFBH-55" value="通过域名&lt;br&gt;直接调用" style="edgeLabel;html=1;align=center;verticalAlign=middle;resizable=0;points=[];fontSize=12;" vertex="1" connectable="0" parent="WIyWlLk6GJQsqaUBKTNV-1">
          <mxGeometry x="635" y="280" as="geometry">
            <mxPoint x="-9" as="offset" />
          </mxGeometry>
        </mxCell>
      </root>
    </mxGraphModel>
  </diagram>
</mxfile>
